<?xml version="1.0" encoding="UTF-8" standalone="no"?>
<!DOCTYPE svg PUBLIC "-//W3C//DTD SVG 1.1//EN"
 "http://www.w3.org/Graphics/SVG/1.1/DTD/svg11.dtd">
<!-- Generated by graphviz version 2.50.0 (20211204.2007)
 -->
<!-- Title: G Pages: 1 -->
<svg width="1157pt" height="333pt"
 viewBox="0.00 0.00 1157.20 333.14" xmlns="http://www.w3.org/2000/svg" xmlns:xlink="http://www.w3.org/1999/xlink">
<g id="graph0" class="graph" transform="scale(1 1) rotate(0) translate(21.6 311.54)">
<title>G</title>
<polygon fill="#111111" stroke="transparent" points="-21.6,21.6 -21.6,-311.54 1135.6,-311.54 1135.6,21.6 -21.6,21.6"/>
<!-- constants/constant.ts -->
<g id="node1" class="node">
<title>constants/constant.ts</title>
<path fill="none" stroke="#cfffac" d="M1106.33,-177C1106.33,-177 978.67,-177 978.67,-177 974.83,-177 971,-173.17 971,-169.33 971,-169.33 971,-161.67 971,-161.67 971,-157.83 974.83,-154 978.67,-154 978.67,-154 1106.33,-154 1106.33,-154 1110.17,-154 1114,-157.83 1114,-161.67 1114,-161.67 1114,-169.33 1114,-169.33 1114,-173.17 1110.17,-177 1106.33,-177"/>
<text text-anchor="middle" x="1042.5" y="-161.8" font-family="Arial" font-size="14.00" fill="#cfffac">constants/constant.ts</text>
</g>
<!-- db/entities/kotatsu.entity.ts -->
<g id="node2" class="node">
<title>db/entities/kotatsu.entity.ts</title>
<path fill="none" stroke="#cfffac" d="M927.33,-45C927.33,-45 767.67,-45 767.67,-45 763.83,-45 760,-41.17 760,-37.33 760,-37.33 760,-29.67 760,-29.67 760,-25.83 763.83,-22 767.67,-22 767.67,-22 927.33,-22 927.33,-22 931.17,-22 935,-25.83 935,-29.67 935,-29.67 935,-37.33 935,-37.33 935,-41.17 931.17,-45 927.33,-45"/>
<text text-anchor="middle" x="847.5" y="-29.8" font-family="Arial" font-size="14.00" fill="#cfffac">db/entities/kotatsu.entity.ts</text>
</g>
<!-- db/entities/user.entity.ts -->
<g id="node3" class="node">
<title>db/entities/user.entity.ts</title>
<path fill="none" stroke="#cfffac" d="M918.33,-218C918.33,-218 776.67,-218 776.67,-218 772.83,-218 769,-214.17 769,-210.33 769,-210.33 769,-202.67 769,-202.67 769,-198.83 772.83,-195 776.67,-195 776.67,-195 918.33,-195 918.33,-195 922.17,-195 926,-198.83 926,-202.67 926,-202.67 926,-210.33 926,-210.33 926,-214.17 922.17,-218 918.33,-218"/>
<text text-anchor="middle" x="847.5" y="-202.8" font-family="Arial" font-size="14.00" fill="#cfffac">db/entities/user.entity.ts</text>
</g>
<!-- db/models/kotatsu.model.ts -->
<g id="node4" class="node">
<title>db/models/kotatsu.model.ts</title>
<path fill="none" stroke="#c6c5fe" d="M716.33,-23C716.33,-23 549.67,-23 549.67,-23 545.83,-23 542,-19.17 542,-15.33 542,-15.33 542,-7.67 542,-7.67 542,-3.83 545.83,0 549.67,0 549.67,0 716.33,0 716.33,0 720.17,0 724,-3.83 724,-7.67 724,-7.67 724,-15.33 724,-15.33 724,-19.17 720.17,-23 716.33,-23"/>
<text text-anchor="middle" x="633" y="-7.8" font-family="Arial" font-size="14.00" fill="#c6c5fe">db/models/kotatsu.model.ts</text>
</g>
<!-- db/models/kotatsu.model.ts&#45;&gt;db/entities/kotatsu.entity.ts -->
<g id="edge1" class="edge">
<title>db/models/kotatsu.model.ts&#45;&gt;db/entities/kotatsu.entity.ts</title>
<path fill="none" stroke="#757575" d="M724.12,-20.83C732.66,-21.71 741.34,-22.61 749.93,-23.5"/>
<polygon fill="#757575" stroke="#757575" points="749.66,-26.99 759.97,-24.54 750.38,-20.03 749.66,-26.99"/>
</g>
<!-- db/models/user.model.ts -->
<g id="node5" class="node">
<title>db/models/user.model.ts</title>
<path fill="none" stroke="#c6c5fe" d="M707.33,-177C707.33,-177 558.67,-177 558.67,-177 554.83,-177 551,-173.17 551,-169.33 551,-169.33 551,-161.67 551,-161.67 551,-157.83 554.83,-154 558.67,-154 558.67,-154 707.33,-154 707.33,-154 711.17,-154 715,-157.83 715,-161.67 715,-161.67 715,-169.33 715,-169.33 715,-173.17 711.17,-177 707.33,-177"/>
<text text-anchor="middle" x="633" y="-161.8" font-family="Arial" font-size="14.00" fill="#c6c5fe">db/models/user.model.ts</text>
</g>
<!-- db/models/user.model.ts&#45;&gt;constants/constant.ts -->
<g id="edge2" class="edge">
<title>db/models/user.model.ts&#45;&gt;constants/constant.ts</title>
<path fill="none" stroke="#757575" d="M690.83,-153.98C712.39,-150.15 737.24,-146.38 760,-144.5 837.51,-138.08 857.59,-136.94 935,-144.5 950.85,-146.05 967.84,-148.86 983.48,-151.94"/>
<polygon fill="#757575" stroke="#757575" points="983.05,-155.42 993.55,-153.98 984.45,-148.56 983.05,-155.42"/>
</g>
<!-- db/models/user.model.ts&#45;&gt;db/entities/user.entity.ts -->
<g id="edge3" class="edge">
<title>db/models/user.model.ts&#45;&gt;db/entities/user.entity.ts</title>
<path fill="none" stroke="#757575" d="M693.76,-177.03C719.56,-182.01 749.91,-187.86 776.73,-193.04"/>
<polygon fill="#757575" stroke="#757575" points="776.34,-196.53 786.82,-194.99 777.67,-189.65 776.34,-196.53"/>
</g>
<!-- utils/hash.ts -->
<g id="node6" class="node">
<title>utils/hash.ts</title>
<path fill="none" stroke="#c6c5fe" d="M883.83,-177C883.83,-177 811.17,-177 811.17,-177 807.33,-177 803.5,-173.17 803.5,-169.33 803.5,-169.33 803.5,-161.67 803.5,-161.67 803.5,-157.83 807.33,-154 811.17,-154 811.17,-154 883.83,-154 883.83,-154 887.67,-154 891.5,-157.83 891.5,-161.67 891.5,-161.67 891.5,-169.33 891.5,-169.33 891.5,-173.17 887.67,-177 883.83,-177"/>
<text text-anchor="middle" x="847.5" y="-161.8" font-family="Arial" font-size="14.00" fill="#c6c5fe">utils/hash.ts</text>
</g>
<!-- db/models/user.model.ts&#45;&gt;utils/hash.ts -->
<g id="edge4" class="edge">
<title>db/models/user.model.ts&#45;&gt;utils/hash.ts</title>
<path fill="none" stroke="#757575" d="M715.25,-165.5C741.37,-165.5 769.64,-165.5 793.23,-165.5"/>
<polygon fill="#757575" stroke="#757575" points="793.37,-169 803.37,-165.5 793.37,-162 793.37,-169"/>
</g>
<!-- utils/hash.ts&#45;&gt;constants/constant.ts -->
<g id="edge21" class="edge">
<title>utils/hash.ts&#45;&gt;constants/constant.ts</title>
<path fill="none" stroke="#757575" d="M891.81,-165.5C912.14,-165.5 937.04,-165.5 960.66,-165.5"/>
<polygon fill="#757575" stroke="#757575" points="960.68,-169 970.68,-165.5 960.68,-162 960.68,-169"/>
</g>
<!-- index.ts -->
<g id="node7" class="node">
<title>index.ts</title>
<path fill="none" stroke="#c6c5fe" d="M55.33,-191C55.33,-191 7.67,-191 7.67,-191 3.83,-191 0,-187.17 0,-183.33 0,-183.33 0,-175.67 0,-175.67 0,-171.83 3.83,-168 7.67,-168 7.67,-168 55.33,-168 55.33,-168 59.17,-168 63,-171.83 63,-175.67 63,-175.67 63,-183.33 63,-183.33 63,-187.17 59.17,-191 55.33,-191"/>
<text text-anchor="middle" x="31.5" y="-175.8" font-family="Arial" font-size="14.00" fill="#c6c5fe">index.ts</text>
</g>
<!-- index.ts&#45;&gt;constants/constant.ts -->
<g id="edge5" class="edge">
<title>index.ts&#45;&gt;constants/constant.ts</title>
<path fill="none" stroke="#757575" d="M41.15,-191.15C52.62,-205.62 74.31,-229.83 99,-241.5 229.74,-303.28 276.9,-284.5 421.5,-284.5 421.5,-284.5 421.5,-284.5 634,-284.5 768.4,-284.5 811.15,-307.69 935,-255.5 972.22,-239.81 1006.16,-206.34 1025.29,-184.93"/>
<polygon fill="#757575" stroke="#757575" points="1028.17,-186.96 1032.1,-177.12 1022.89,-182.36 1028.17,-186.96"/>
</g>
<!-- middleware/auth.middleware.ts -->
<g id="node8" class="node">
<title>middleware/auth.middleware.ts</title>
<path fill="none" stroke="#c6c5fe" d="M295.33,-212C295.33,-212 106.67,-212 106.67,-212 102.83,-212 99,-208.17 99,-204.33 99,-204.33 99,-196.67 99,-196.67 99,-192.83 102.83,-189 106.67,-189 106.67,-189 295.33,-189 295.33,-189 299.17,-189 303,-192.83 303,-196.67 303,-196.67 303,-204.33 303,-204.33 303,-208.17 299.17,-212 295.33,-212"/>
<text text-anchor="middle" x="201" y="-196.8" font-family="Arial" font-size="14.00" fill="#c6c5fe">middleware/auth.middleware.ts</text>
</g>
<!-- index.ts&#45;&gt;middleware/auth.middleware.ts -->
<g id="edge6" class="edge">
<title>index.ts&#45;&gt;middleware/auth.middleware.ts</title>
<path fill="none" stroke="#757575" d="M63.22,-183.35C73.43,-184.63 85.43,-186.14 98,-187.71"/>
<polygon fill="#757575" stroke="#757575" points="97.83,-191.22 108.18,-188.99 98.7,-184.27 97.83,-191.22"/>
</g>
<!-- router/iot.ts -->
<g id="node9" class="node">
<title>router/iot.ts</title>
<path fill="none" stroke="#c6c5fe" d="M235.33,-80C235.33,-80 166.67,-80 166.67,-80 162.83,-80 159,-76.17 159,-72.33 159,-72.33 159,-64.67 159,-64.67 159,-60.83 162.83,-57 166.67,-57 166.67,-57 235.33,-57 235.33,-57 239.17,-57 243,-60.83 243,-64.67 243,-64.67 243,-72.33 243,-72.33 243,-76.17 239.17,-80 235.33,-80"/>
<text text-anchor="middle" x="201" y="-64.8" font-family="Arial" font-size="14.00" fill="#c6c5fe">router/iot.ts</text>
</g>
<!-- index.ts&#45;&gt;router/iot.ts -->
<g id="edge7" class="edge">
<title>index.ts&#45;&gt;router/iot.ts</title>
<path fill="none" stroke="#757575" d="M38.81,-167.81C49.06,-149.96 71.03,-116.01 99,-97.5 113.88,-87.65 132.13,-81.1 149.01,-76.76"/>
<polygon fill="#757575" stroke="#757575" points="149.83,-80.16 158.75,-74.45 148.21,-73.35 149.83,-80.16"/>
</g>
<!-- router/user.ts -->
<g id="node10" class="node">
<title>router/user.ts</title>
<path fill="none" stroke="#c6c5fe" d="M240.83,-130C240.83,-130 161.17,-130 161.17,-130 157.33,-130 153.5,-126.17 153.5,-122.33 153.5,-122.33 153.5,-114.67 153.5,-114.67 153.5,-110.83 157.33,-107 161.17,-107 161.17,-107 240.83,-107 240.83,-107 244.67,-107 248.5,-110.83 248.5,-114.67 248.5,-114.67 248.5,-122.33 248.5,-122.33 248.5,-126.17 244.67,-130 240.83,-130"/>
<text text-anchor="middle" x="201" y="-114.8" font-family="Arial" font-size="14.00" fill="#c6c5fe">router/user.ts</text>
</g>
<!-- index.ts&#45;&gt;router/user.ts -->
<g id="edge8" class="edge">
<title>index.ts&#45;&gt;router/user.ts</title>
<path fill="none" stroke="#757575" d="M47.78,-167.87C60.75,-158.56 80.19,-145.88 99,-138.5 112.93,-133.03 128.54,-129.01 143.25,-126.06"/>
<polygon fill="#757575" stroke="#757575" points="144.07,-129.46 153.26,-124.18 142.79,-122.58 144.07,-129.46"/>
</g>
<!-- utils/init.ts -->
<g id="node11" class="node">
<title>utils/init.ts</title>
<path fill="none" stroke="#c6c5fe" d="M231.33,-171C231.33,-171 170.67,-171 170.67,-171 166.83,-171 163,-167.17 163,-163.33 163,-163.33 163,-155.67 163,-155.67 163,-151.83 166.83,-148 170.67,-148 170.67,-148 231.33,-148 231.33,-148 235.17,-148 239,-151.83 239,-155.67 239,-155.67 239,-163.33 239,-163.33 239,-167.17 235.17,-171 231.33,-171"/>
<text text-anchor="middle" x="201" y="-155.8" font-family="Arial" font-size="14.00" fill="#c6c5fe">utils/init.ts</text>
</g>
<!-- index.ts&#45;&gt;utils/init.ts -->
<g id="edge9" class="edge">
<title>index.ts&#45;&gt;utils/init.ts</title>
<path fill="none" stroke="#757575" d="M63.22,-175.83C88.2,-172.85 123.88,-168.59 152.53,-165.17"/>
<polygon fill="#757575" stroke="#757575" points="153.22,-168.61 162.74,-163.95 152.39,-161.66 153.22,-168.61"/>
</g>
<!-- utils/logger.ts -->
<g id="node12" class="node">
<title>utils/logger.ts</title>
<path fill="none" stroke="#cfffac" d="M462.33,-214C462.33,-214 382.67,-214 382.67,-214 378.83,-214 375,-210.17 375,-206.33 375,-206.33 375,-198.67 375,-198.67 375,-194.83 378.83,-191 382.67,-191 382.67,-191 462.33,-191 462.33,-191 466.17,-191 470,-194.83 470,-198.67 470,-198.67 470,-206.33 470,-206.33 470,-210.17 466.17,-214 462.33,-214"/>
<text text-anchor="middle" x="422.5" y="-198.8" font-family="Arial" font-size="14.00" fill="#cfffac">utils/logger.ts</text>
</g>
<!-- index.ts&#45;&gt;utils/logger.ts -->
<g id="edge10" class="edge">
<title>index.ts&#45;&gt;utils/logger.ts</title>
<path fill="none" stroke="#757575" d="M45.65,-191.01C58.32,-201.28 78.54,-215.58 99,-221.5 190.93,-248.1 303.57,-230.8 368.49,-216.31"/>
<polygon fill="#757575" stroke="#757575" points="369.52,-219.66 378.49,-214.01 367.96,-212.84 369.52,-219.66"/>
</g>
<!-- middleware/auth.middleware.ts&#45;&gt;constants/constant.ts -->
<g id="edge11" class="edge">
<title>middleware/auth.middleware.ts&#45;&gt;constants/constant.ts</title>
<path fill="none" stroke="#757575" d="M250.71,-212.06C369.97,-238.27 685.12,-294.94 935,-227.5 966.81,-218.92 998.89,-198.22 1019.4,-183.1"/>
<polygon fill="#757575" stroke="#757575" points="1021.59,-185.83 1027.45,-177.01 1017.36,-180.25 1021.59,-185.83"/>
</g>
<!-- middleware/auth.middleware.ts&#45;&gt;utils/logger.ts -->
<g id="edge13" class="edge">
<title>middleware/auth.middleware.ts&#45;&gt;utils/logger.ts</title>
<path fill="none" stroke="#757575" d="M303.08,-201.42C324.25,-201.61 345.85,-201.81 364.71,-201.98"/>
<polygon fill="#757575" stroke="#757575" points="364.85,-205.48 374.89,-202.08 364.92,-198.48 364.85,-205.48"/>
</g>
<!-- service/user.service.ts -->
<g id="node13" class="node">
<title>service/user.service.ts</title>
<path fill="none" stroke="#c6c5fe" d="M489.33,-173C489.33,-173 355.67,-173 355.67,-173 351.83,-173 348,-169.17 348,-165.33 348,-165.33 348,-157.67 348,-157.67 348,-153.83 351.83,-150 355.67,-150 355.67,-150 489.33,-150 489.33,-150 493.17,-150 497,-153.83 497,-157.67 497,-157.67 497,-165.33 497,-165.33 497,-169.17 493.17,-173 489.33,-173"/>
<text text-anchor="middle" x="422.5" y="-157.8" font-family="Arial" font-size="14.00" fill="#c6c5fe">service/user.service.ts</text>
</g>
<!-- middleware/auth.middleware.ts&#45;&gt;service/user.service.ts -->
<g id="edge12" class="edge">
<title>middleware/auth.middleware.ts&#45;&gt;service/user.service.ts</title>
<path fill="none" stroke="#757575" d="M266.97,-188.96C291.97,-184.52 320.71,-179.41 346.57,-174.81"/>
<polygon fill="#757575" stroke="#757575" points="347.47,-178.21 356.7,-173.01 346.24,-171.32 347.47,-178.21"/>
</g>
<!-- service/kotatsu.service.ts -->
<g id="node14" class="node">
<title>service/kotatsu.service.ts</title>
<path fill="none" stroke="#c6c5fe" d="M498.33,-62C498.33,-62 346.67,-62 346.67,-62 342.83,-62 339,-58.17 339,-54.33 339,-54.33 339,-46.67 339,-46.67 339,-42.83 342.83,-39 346.67,-39 346.67,-39 498.33,-39 498.33,-39 502.17,-39 506,-42.83 506,-46.67 506,-46.67 506,-54.33 506,-54.33 506,-58.17 502.17,-62 498.33,-62"/>
<text text-anchor="middle" x="422.5" y="-46.8" font-family="Arial" font-size="14.00" fill="#c6c5fe">service/kotatsu.service.ts</text>
</g>
<!-- router/iot.ts&#45;&gt;service/kotatsu.service.ts -->
<g id="edge14" class="edge">
<title>router/iot.ts&#45;&gt;service/kotatsu.service.ts</title>
<path fill="none" stroke="#757575" d="M243.03,-65.14C267.22,-63.15 298.87,-60.56 328.78,-58.1"/>
<polygon fill="#757575" stroke="#757575" points="329.17,-61.58 338.85,-57.28 328.59,-54.61 329.17,-61.58"/>
</g>
<!-- router/user.ts&#45;&gt;service/user.service.ts -->
<g id="edge16" class="edge">
<title>router/user.ts&#45;&gt;service/user.service.ts</title>
<path fill="none" stroke="#757575" d="M248.55,-127.62C278.79,-133.54 318.74,-141.37 352.62,-148.01"/>
<polygon fill="#757575" stroke="#757575" points="351.98,-151.45 362.46,-149.93 353.32,-144.58 351.98,-151.45"/>
</g>
<!-- router/user.ts&#45;&gt;service/kotatsu.service.ts -->
<g id="edge15" class="edge">
<title>router/user.ts&#45;&gt;service/kotatsu.service.ts</title>
<path fill="none" stroke="#757575" d="M241.91,-106.98C260.52,-101.52 282.94,-94.82 303,-88.5 319.09,-83.43 322.96,-81.7 339,-76.5 350.61,-72.74 363.16,-68.74 374.88,-65.04"/>
<polygon fill="#757575" stroke="#757575" points="376.01,-68.36 384.5,-62.02 373.91,-61.68 376.01,-68.36"/>
</g>
<!-- utils/init.ts&#45;&gt;constants/constant.ts -->
<g id="edge22" class="edge">
<title>utils/init.ts&#45;&gt;constants/constant.ts</title>
<path fill="none" stroke="#757575" d="M239.08,-153.07C266.56,-148.62 305,-143.05 339,-140.5 603.16,-120.69 672.59,-99.25 935,-135.5 956.71,-138.5 980.23,-144.79 999.63,-150.83"/>
<polygon fill="#757575" stroke="#757575" points="998.77,-154.23 1009.36,-153.95 1000.91,-147.57 998.77,-154.23"/>
</g>
<!-- utils/init.ts&#45;&gt;utils/logger.ts -->
<g id="edge25" class="edge">
<title>utils/init.ts&#45;&gt;utils/logger.ts</title>
<path fill="none" stroke="#757575" d="M239.24,-166.79C273.67,-173.54 325.33,-183.66 364.87,-191.41"/>
<polygon fill="#757575" stroke="#757575" points="364.42,-194.88 374.9,-193.37 365.76,-188.01 364.42,-194.88"/>
</g>
<!-- utils/init.ts&#45;&gt;service/user.service.ts -->
<g id="edge24" class="edge">
<title>utils/init.ts&#45;&gt;service/user.service.ts</title>
<path fill="none" stroke="#757575" d="M239.24,-159.84C266.06,-160.08 303.35,-160.42 337.21,-160.73"/>
<polygon fill="#757575" stroke="#757575" points="337.56,-164.24 347.59,-160.83 337.63,-157.24 337.56,-164.24"/>
</g>
<!-- utils/init.ts&#45;&gt;service/kotatsu.service.ts -->
<g id="edge23" class="edge">
<title>utils/init.ts&#45;&gt;service/kotatsu.service.ts</title>
<path fill="none" stroke="#757575" d="M239.04,-159.01C259.55,-157.08 284.55,-151.81 303,-138.5 328.84,-119.86 314.12,-96.41 339,-76.5 344,-72.5 349.63,-69.11 355.53,-66.23"/>
<polygon fill="#757575" stroke="#757575" points="357.2,-69.33 364.98,-62.14 354.41,-62.9 357.2,-69.33"/>
</g>
<!-- service/user.service.ts&#45;&gt;db/entities/user.entity.ts -->
<g id="edge19" class="edge">
<title>service/user.service.ts&#45;&gt;db/entities/user.entity.ts</title>
<path fill="none" stroke="#757575" d="M470.51,-173.03C492.16,-177.92 518.25,-183.23 542,-186.5 614.56,-196.49 697.56,-201.52 758.55,-204.04"/>
<polygon fill="#757575" stroke="#757575" points="758.78,-207.55 768.91,-204.45 759.06,-200.55 758.78,-207.55"/>
</g>
<!-- service/user.service.ts&#45;&gt;db/models/user.model.ts -->
<g id="edge20" class="edge">
<title>service/user.service.ts&#45;&gt;db/models/user.model.ts</title>
<path fill="none" stroke="#757575" d="M497.01,-162.91C511.2,-163.18 526.23,-163.47 540.91,-163.75"/>
<polygon fill="#757575" stroke="#757575" points="540.93,-167.25 551,-163.95 541.06,-160.25 540.93,-167.25"/>
</g>
<!-- service/kotatsu.service.ts&#45;&gt;db/entities/kotatsu.entity.ts -->
<g id="edge17" class="edge">
<title>service/kotatsu.service.ts&#45;&gt;db/entities/kotatsu.entity.ts</title>
<path fill="none" stroke="#757575" d="M506.06,-47.18C575.87,-44.38 675.98,-40.35 749.58,-37.4"/>
<polygon fill="#757575" stroke="#757575" points="749.93,-40.88 759.78,-36.99 749.65,-33.89 749.93,-40.88"/>
</g>
<!-- service/kotatsu.service.ts&#45;&gt;db/models/kotatsu.model.ts -->
<g id="edge18" class="edge">
<title>service/kotatsu.service.ts&#45;&gt;db/models/kotatsu.model.ts</title>
<path fill="none" stroke="#757575" d="M485.21,-38.96C508.85,-34.53 536.02,-29.45 560.5,-24.87"/>
<polygon fill="#757575" stroke="#757575" points="561.26,-28.29 570.45,-23.01 559.97,-21.41 561.26,-28.29"/>
</g>
</g>
</svg>
