<?xml version="1.0" encoding="UTF-8" standalone="no"?>
<!DOCTYPE svg PUBLIC "-//W3C//DTD SVG 1.1//EN"
 "http://www.w3.org/Graphics/SVG/1.1/DTD/svg11.dtd">
<!-- Generated by graphviz version 2.50.0 (20211204.2007)
 -->
<!-- Title: G Pages: 1 -->
<svg width="1157pt" height="373pt"
 viewBox="0.00 0.00 1157.20 373.37" xmlns="http://www.w3.org/2000/svg" xmlns:xlink="http://www.w3.org/1999/xlink">
<g id="graph0" class="graph" transform="scale(1 1) rotate(0) translate(21.6 351.77)">
<title>G</title>
<polygon fill="#111111" stroke="transparent" points="-21.6,21.6 -21.6,-351.77 1135.6,-351.77 1135.6,21.6 -21.6,21.6"/>
<!-- ../@types/api.ts -->
<g id="node1" class="node">
<title>../@types/api.ts</title>
<path fill="none" stroke="#cfffac" d="M469.83,-330.17C469.83,-330.17 375.17,-330.17 375.17,-330.17 371.33,-330.17 367.5,-326.33 367.5,-322.5 367.5,-322.5 367.5,-314.83 367.5,-314.83 367.5,-311 371.33,-307.17 375.17,-307.17 375.17,-307.17 469.83,-307.17 469.83,-307.17 473.67,-307.17 477.5,-311 477.5,-314.83 477.5,-314.83 477.5,-322.5 477.5,-322.5 477.5,-326.33 473.67,-330.17 469.83,-330.17"/>
<text text-anchor="middle" x="422.5" y="-314.97" font-family="Arial" font-size="14.00" fill="#cfffac">../@types/api.ts</text>
</g>
<!-- ../schema.graphql -->
<g id="node2" class="node">
<title>../schema.graphql</title>
<path fill="none" stroke="#cfffac" d="M477.33,-289.17C477.33,-289.17 367.67,-289.17 367.67,-289.17 363.83,-289.17 360,-285.33 360,-281.5 360,-281.5 360,-273.83 360,-273.83 360,-270 363.83,-266.17 367.67,-266.17 367.67,-266.17 477.33,-266.17 477.33,-266.17 481.17,-266.17 485,-270 485,-273.83 485,-273.83 485,-281.5 485,-281.5 485,-285.33 481.17,-289.17 477.33,-289.17"/>
<text text-anchor="middle" x="422.5" y="-273.97" font-family="Arial" font-size="14.00" fill="#cfffac">../schema.graphql</text>
</g>
<!-- constants/constant.ts -->
<g id="node3" class="node">
<title>constants/constant.ts</title>
<path fill="none" stroke="#cfffac" d="M1106.33,-147.17C1106.33,-147.17 978.67,-147.17 978.67,-147.17 974.83,-147.17 971,-143.33 971,-139.5 971,-139.5 971,-131.83 971,-131.83 971,-128 974.83,-124.17 978.67,-124.17 978.67,-124.17 1106.33,-124.17 1106.33,-124.17 1110.17,-124.17 1114,-128 1114,-131.83 1114,-131.83 1114,-139.5 1114,-139.5 1114,-143.33 1110.17,-147.17 1106.33,-147.17"/>
<text text-anchor="middle" x="1042.5" y="-131.97" font-family="Arial" font-size="14.00" fill="#cfffac">constants/constant.ts</text>
</g>
<!-- db/entities/kotatsu.entity.ts -->
<g id="node4" class="node">
<title>db/entities/kotatsu.entity.ts</title>
<path fill="none" stroke="#cfffac" d="M927.33,-287.17C927.33,-287.17 767.67,-287.17 767.67,-287.17 763.83,-287.17 760,-283.33 760,-279.5 760,-279.5 760,-271.83 760,-271.83 760,-268 763.83,-264.17 767.67,-264.17 767.67,-264.17 927.33,-264.17 927.33,-264.17 931.17,-264.17 935,-268 935,-271.83 935,-271.83 935,-279.5 935,-279.5 935,-283.33 931.17,-287.17 927.33,-287.17"/>
<text text-anchor="middle" x="847.5" y="-271.97" font-family="Arial" font-size="14.00" fill="#cfffac">db/entities/kotatsu.entity.ts</text>
</g>
<!-- db/entities/user.entity.ts -->
<g id="node5" class="node">
<title>db/entities/user.entity.ts</title>
<path fill="none" stroke="#cfffac" d="M918.33,-107.17C918.33,-107.17 776.67,-107.17 776.67,-107.17 772.83,-107.17 769,-103.33 769,-99.5 769,-99.5 769,-91.83 769,-91.83 769,-88 772.83,-84.17 776.67,-84.17 776.67,-84.17 918.33,-84.17 918.33,-84.17 922.17,-84.17 926,-88 926,-91.83 926,-91.83 926,-99.5 926,-99.5 926,-103.33 922.17,-107.17 918.33,-107.17"/>
<text text-anchor="middle" x="847.5" y="-91.97" font-family="Arial" font-size="14.00" fill="#cfffac">db/entities/user.entity.ts</text>
</g>
<!-- db/models/kotatsu.model.ts -->
<g id="node6" class="node">
<title>db/models/kotatsu.model.ts</title>
<path fill="none" stroke="#c6c5fe" d="M716.33,-287.17C716.33,-287.17 549.67,-287.17 549.67,-287.17 545.83,-287.17 542,-283.33 542,-279.5 542,-279.5 542,-271.83 542,-271.83 542,-268 545.83,-264.17 549.67,-264.17 549.67,-264.17 716.33,-264.17 716.33,-264.17 720.17,-264.17 724,-268 724,-271.83 724,-271.83 724,-279.5 724,-279.5 724,-283.33 720.17,-287.17 716.33,-287.17"/>
<text text-anchor="middle" x="633" y="-271.97" font-family="Arial" font-size="14.00" fill="#c6c5fe">db/models/kotatsu.model.ts</text>
</g>
<!-- db/models/kotatsu.model.ts&#45;&gt;db/entities/kotatsu.entity.ts -->
<g id="edge1" class="edge">
<title>db/models/kotatsu.model.ts&#45;&gt;db/entities/kotatsu.entity.ts</title>
<path fill="none" stroke="#757575" d="M724.12,-275.67C732.66,-275.67 741.34,-275.67 749.93,-275.67"/>
<polygon fill="#757575" stroke="#757575" points="749.97,-279.17 759.97,-275.67 749.97,-272.17 749.97,-279.17"/>
</g>
<!-- db/models/user.model.ts -->
<g id="node7" class="node">
<title>db/models/user.model.ts</title>
<path fill="none" stroke="#c6c5fe" d="M707.33,-147.17C707.33,-147.17 558.67,-147.17 558.67,-147.17 554.83,-147.17 551,-143.33 551,-139.5 551,-139.5 551,-131.83 551,-131.83 551,-128 554.83,-124.17 558.67,-124.17 558.67,-124.17 707.33,-124.17 707.33,-124.17 711.17,-124.17 715,-128 715,-131.83 715,-131.83 715,-139.5 715,-139.5 715,-143.33 711.17,-147.17 707.33,-147.17"/>
<text text-anchor="middle" x="633" y="-131.97" font-family="Arial" font-size="14.00" fill="#c6c5fe">db/models/user.model.ts</text>
</g>
<!-- db/models/user.model.ts&#45;&gt;constants/constant.ts -->
<g id="edge2" class="edge">
<title>db/models/user.model.ts&#45;&gt;constants/constant.ts</title>
<path fill="none" stroke="#757575" d="M715.48,-135.67C786.66,-135.67 889.41,-135.67 960.46,-135.67"/>
<polygon fill="#757575" stroke="#757575" points="960.7,-139.17 970.7,-135.67 960.7,-132.17 960.7,-139.17"/>
</g>
<!-- db/models/user.model.ts&#45;&gt;db/entities/user.entity.ts -->
<g id="edge3" class="edge">
<title>db/models/user.model.ts&#45;&gt;db/entities/user.entity.ts</title>
<path fill="none" stroke="#757575" d="M695.18,-124.15C720.18,-119.44 749.27,-113.97 775.23,-109.08"/>
<polygon fill="#757575" stroke="#757575" points="776.21,-112.46 785.39,-107.17 774.91,-105.58 776.21,-112.46"/>
</g>
<!-- utils/hash.ts -->
<g id="node8" class="node">
<title>utils/hash.ts</title>
<path fill="none" stroke="#c6c5fe" d="M883.83,-187.17C883.83,-187.17 811.17,-187.17 811.17,-187.17 807.33,-187.17 803.5,-183.33 803.5,-179.5 803.5,-179.5 803.5,-171.83 803.5,-171.83 803.5,-168 807.33,-164.17 811.17,-164.17 811.17,-164.17 883.83,-164.17 883.83,-164.17 887.67,-164.17 891.5,-168 891.5,-171.83 891.5,-171.83 891.5,-179.5 891.5,-179.5 891.5,-183.33 887.67,-187.17 883.83,-187.17"/>
<text text-anchor="middle" x="847.5" y="-171.97" font-family="Arial" font-size="14.00" fill="#c6c5fe">utils/hash.ts</text>
</g>
<!-- db/models/user.model.ts&#45;&gt;utils/hash.ts -->
<g id="edge4" class="edge">
<title>db/models/user.model.ts&#45;&gt;utils/hash.ts</title>
<path fill="none" stroke="#757575" d="M695.18,-147.18C726.11,-153.01 763.29,-160 793.06,-165.61"/>
<polygon fill="#757575" stroke="#757575" points="792.78,-169.12 803.26,-167.53 794.08,-162.24 792.78,-169.12"/>
</g>
<!-- utils/hash.ts&#45;&gt;constants/constant.ts -->
<g id="edge23" class="edge">
<title>utils/hash.ts&#45;&gt;constants/constant.ts</title>
<path fill="none" stroke="#757575" d="M891.81,-166.69C916.56,-161.56 948.09,-155.03 975.83,-149.28"/>
<polygon fill="#757575" stroke="#757575" points="976.77,-152.66 985.85,-147.2 975.35,-145.8 976.77,-152.66"/>
</g>
<!-- index.ts -->
<g id="node9" class="node">
<title>index.ts</title>
<path fill="none" stroke="#c6c5fe" d="M55.33,-147.17C55.33,-147.17 7.67,-147.17 7.67,-147.17 3.83,-147.17 0,-143.33 0,-139.5 0,-139.5 0,-131.83 0,-131.83 0,-128 3.83,-124.17 7.67,-124.17 7.67,-124.17 55.33,-124.17 55.33,-124.17 59.17,-124.17 63,-128 63,-131.83 63,-131.83 63,-139.5 63,-139.5 63,-143.33 59.17,-147.17 55.33,-147.17"/>
<text text-anchor="middle" x="31.5" y="-131.97" font-family="Arial" font-size="14.00" fill="#c6c5fe">index.ts</text>
</g>
<!-- index.ts&#45;&gt;constants/constant.ts -->
<g id="edge5" class="edge">
<title>index.ts&#45;&gt;constants/constant.ts</title>
<path fill="none" stroke="#757575" d="M36.68,-123.96C44.91,-102.87 65.39,-58.9 99,-39.67 223.76,31.7 277.77,-15.67 421.5,-15.67 421.5,-15.67 421.5,-15.67 634,-15.67 769.26,-15.67 809.43,-10.37 935,-60.67 968.4,-74.04 1001.41,-99.76 1021.62,-117.31"/>
<polygon fill="#757575" stroke="#757575" points="1019.41,-120.03 1029.22,-124.05 1024.06,-114.79 1019.41,-120.03"/>
</g>
<!-- middleware/auth.middleware.ts -->
<g id="node10" class="node">
<title>middleware/auth.middleware.ts</title>
<path fill="none" stroke="#c6c5fe" d="M295.33,-106.17C295.33,-106.17 106.67,-106.17 106.67,-106.17 102.83,-106.17 99,-102.33 99,-98.5 99,-98.5 99,-90.83 99,-90.83 99,-87 102.83,-83.17 106.67,-83.17 106.67,-83.17 295.33,-83.17 295.33,-83.17 299.17,-83.17 303,-87 303,-90.83 303,-90.83 303,-98.5 303,-98.5 303,-102.33 299.17,-106.17 295.33,-106.17"/>
<text text-anchor="middle" x="201" y="-90.97" font-family="Arial" font-size="14.00" fill="#c6c5fe">middleware/auth.middleware.ts</text>
</g>
<!-- index.ts&#45;&gt;middleware/auth.middleware.ts -->
<g id="edge6" class="edge">
<title>index.ts&#45;&gt;middleware/auth.middleware.ts</title>
<path fill="none" stroke="#757575" d="M63.13,-125.84C74.36,-122.41 87.2,-118.66 99,-115.67 109.06,-113.11 119.75,-110.64 130.26,-108.34"/>
<polygon fill="#757575" stroke="#757575" points="131.21,-111.71 140.25,-106.19 129.74,-104.87 131.21,-111.71"/>
</g>
<!-- router/iot.ts -->
<g id="node11" class="node">
<title>router/iot.ts</title>
<path fill="none" stroke="#c6c5fe" d="M235.33,-289.17C235.33,-289.17 166.67,-289.17 166.67,-289.17 162.83,-289.17 159,-285.33 159,-281.5 159,-281.5 159,-273.83 159,-273.83 159,-270 162.83,-266.17 166.67,-266.17 166.67,-266.17 235.33,-266.17 235.33,-266.17 239.17,-266.17 243,-270 243,-273.83 243,-273.83 243,-281.5 243,-281.5 243,-285.33 239.17,-289.17 235.33,-289.17"/>
<text text-anchor="middle" x="201" y="-273.97" font-family="Arial" font-size="14.00" fill="#c6c5fe">router/iot.ts</text>
</g>
<!-- index.ts&#45;&gt;router/iot.ts -->
<g id="edge7" class="edge">
<title>index.ts&#45;&gt;router/iot.ts</title>
<path fill="none" stroke="#757575" d="M37.09,-147.25C45.97,-168.3 67.46,-213.01 99,-238.67 113.38,-250.37 131.68,-258.84 148.73,-264.84"/>
<polygon fill="#757575" stroke="#757575" points="148,-268.28 158.59,-268.09 150.19,-261.64 148,-268.28"/>
</g>
<!-- router/user.ts -->
<g id="node12" class="node">
<title>router/user.ts</title>
<path fill="none" stroke="#c6c5fe" d="M240.83,-229.17C240.83,-229.17 161.17,-229.17 161.17,-229.17 157.33,-229.17 153.5,-225.33 153.5,-221.5 153.5,-221.5 153.5,-213.83 153.5,-213.83 153.5,-210 157.33,-206.17 161.17,-206.17 161.17,-206.17 240.83,-206.17 240.83,-206.17 244.67,-206.17 248.5,-210 248.5,-213.83 248.5,-213.83 248.5,-221.5 248.5,-221.5 248.5,-225.33 244.67,-229.17 240.83,-229.17"/>
<text text-anchor="middle" x="201" y="-213.97" font-family="Arial" font-size="14.00" fill="#c6c5fe">router/user.ts</text>
</g>
<!-- index.ts&#45;&gt;router/user.ts -->
<g id="edge8" class="edge">
<title>index.ts&#45;&gt;router/user.ts</title>
<path fill="none" stroke="#757575" d="M41.47,-147.32C53.12,-161.56 74.83,-185.3 99,-197.67 112.58,-204.61 128.32,-209.15 143.28,-212.11"/>
<polygon fill="#757575" stroke="#757575" points="143.02,-215.62 153.47,-213.92 144.24,-208.73 143.02,-215.62"/>
</g>
<!-- utils/init.ts -->
<g id="node13" class="node">
<title>utils/init.ts</title>
<path fill="none" stroke="#c6c5fe" d="M231.33,-188.17C231.33,-188.17 170.67,-188.17 170.67,-188.17 166.83,-188.17 163,-184.33 163,-180.5 163,-180.5 163,-172.83 163,-172.83 163,-169 166.83,-165.17 170.67,-165.17 170.67,-165.17 231.33,-165.17 231.33,-165.17 235.17,-165.17 239,-169 239,-172.83 239,-172.83 239,-180.5 239,-180.5 239,-184.33 235.17,-188.17 231.33,-188.17"/>
<text text-anchor="middle" x="201" y="-172.97" font-family="Arial" font-size="14.00" fill="#c6c5fe">utils/init.ts</text>
</g>
<!-- index.ts&#45;&gt;utils/init.ts -->
<g id="edge9" class="edge">
<title>index.ts&#45;&gt;utils/init.ts</title>
<path fill="none" stroke="#757575" d="M63.09,-146.1C74.3,-149.72 87.15,-153.63 99,-156.67 116.35,-161.11 135.59,-165.14 152.59,-168.4"/>
<polygon fill="#757575" stroke="#757575" points="152.37,-171.92 162.84,-170.32 153.66,-165.04 152.37,-171.92"/>
</g>
<!-- utils/logger.ts -->
<g id="node14" class="node">
<title>utils/logger.ts</title>
<path fill="none" stroke="#cfffac" d="M462.33,-67.17C462.33,-67.17 382.67,-67.17 382.67,-67.17 378.83,-67.17 375,-63.33 375,-59.5 375,-59.5 375,-51.83 375,-51.83 375,-48 378.83,-44.17 382.67,-44.17 382.67,-44.17 462.33,-44.17 462.33,-44.17 466.17,-44.17 470,-48 470,-51.83 470,-51.83 470,-59.5 470,-59.5 470,-63.33 466.17,-67.17 462.33,-67.17"/>
<text text-anchor="middle" x="422.5" y="-51.97" font-family="Arial" font-size="14.00" fill="#cfffac">utils/logger.ts</text>
</g>
<!-- index.ts&#45;&gt;utils/logger.ts -->
<g id="edge10" class="edge">
<title>index.ts&#45;&gt;utils/logger.ts</title>
<path fill="none" stroke="#757575" d="M40.82,-123.97C52.09,-109.21 73.74,-84.44 99,-73.67 185.91,-36.61 298.11,-40.53 364.67,-47.55"/>
<polygon fill="#757575" stroke="#757575" points="364.63,-51.06 374.95,-48.69 365.4,-44.11 364.63,-51.06"/>
</g>
<!-- utils/login.ts -->
<g id="node15" class="node">
<title>utils/login.ts</title>
<path fill="none" stroke="#c6c5fe" d="M236.83,-147.17C236.83,-147.17 165.17,-147.17 165.17,-147.17 161.33,-147.17 157.5,-143.33 157.5,-139.5 157.5,-139.5 157.5,-131.83 157.5,-131.83 157.5,-128 161.33,-124.17 165.17,-124.17 165.17,-124.17 236.83,-124.17 236.83,-124.17 240.67,-124.17 244.5,-128 244.5,-131.83 244.5,-131.83 244.5,-139.5 244.5,-139.5 244.5,-143.33 240.67,-147.17 236.83,-147.17"/>
<text text-anchor="middle" x="201" y="-131.97" font-family="Arial" font-size="14.00" fill="#c6c5fe">utils/login.ts</text>
</g>
<!-- index.ts&#45;&gt;utils/login.ts -->
<g id="edge11" class="edge">
<title>index.ts&#45;&gt;utils/login.ts</title>
<path fill="none" stroke="#757575" d="M63.22,-135.67C86.67,-135.67 119.54,-135.67 147.18,-135.67"/>
<polygon fill="#757575" stroke="#757575" points="147.49,-139.17 157.49,-135.67 147.49,-132.17 147.49,-139.17"/>
</g>
<!-- middleware/auth.middleware.ts&#45;&gt;utils/logger.ts -->
<g id="edge13" class="edge">
<title>middleware/auth.middleware.ts&#45;&gt;utils/logger.ts</title>
<path fill="none" stroke="#757575" d="M266.97,-83.12C298.09,-77.59 335.01,-71.04 364.95,-65.71"/>
<polygon fill="#757575" stroke="#757575" points="365.59,-69.16 374.82,-63.96 364.36,-62.26 365.59,-69.16"/>
</g>
<!-- service/user.service.ts -->
<g id="node16" class="node">
<title>service/user.service.ts</title>
<path fill="none" stroke="#c6c5fe" d="M489.33,-147.17C489.33,-147.17 355.67,-147.17 355.67,-147.17 351.83,-147.17 348,-143.33 348,-139.5 348,-139.5 348,-131.83 348,-131.83 348,-128 351.83,-124.17 355.67,-124.17 355.67,-124.17 489.33,-124.17 489.33,-124.17 493.17,-124.17 497,-128 497,-131.83 497,-131.83 497,-139.5 497,-139.5 497,-143.33 493.17,-147.17 489.33,-147.17"/>
<text text-anchor="middle" x="422.5" y="-131.97" font-family="Arial" font-size="14.00" fill="#c6c5fe">service/user.service.ts</text>
</g>
<!-- middleware/auth.middleware.ts&#45;&gt;service/user.service.ts -->
<g id="edge12" class="edge">
<title>middleware/auth.middleware.ts&#45;&gt;service/user.service.ts</title>
<path fill="none" stroke="#757575" d="M263.73,-106.2C290.49,-111.2 322,-117.08 349.8,-122.27"/>
<polygon fill="#757575" stroke="#757575" points="349.38,-125.76 359.86,-124.15 350.67,-118.88 349.38,-125.76"/>
</g>
<!-- router/iot.ts&#45;&gt;../@types/api.ts -->
<g id="edge14" class="edge">
<title>router/iot.ts&#45;&gt;../@types/api.ts</title>
<path fill="none" stroke="#757575" d="M243.03,-285.33C275.13,-291.33 320.35,-299.77 357.24,-306.66"/>
<polygon fill="#757575" stroke="#757575" points="356.93,-310.17 367.4,-308.56 358.22,-303.29 356.93,-310.17"/>
</g>
<!-- router/iot.ts&#45;&gt;../schema.graphql -->
<g id="edge15" class="edge">
<title>router/iot.ts&#45;&gt;../schema.graphql</title>
<path fill="none" stroke="#757575" d="M243.03,-277.67C272.96,-277.67 314.29,-277.67 349.65,-277.67"/>
<polygon fill="#757575" stroke="#757575" points="349.93,-281.17 359.93,-277.67 349.93,-274.17 349.93,-281.17"/>
</g>
<!-- service/kotatsu.service.ts -->
<g id="node17" class="node">
<title>service/kotatsu.service.ts</title>
<path fill="none" stroke="#c6c5fe" d="M498.33,-248.17C498.33,-248.17 346.67,-248.17 346.67,-248.17 342.83,-248.17 339,-244.33 339,-240.5 339,-240.5 339,-232.83 339,-232.83 339,-229 342.83,-225.17 346.67,-225.17 346.67,-225.17 498.33,-225.17 498.33,-225.17 502.17,-225.17 506,-229 506,-232.83 506,-232.83 506,-240.5 506,-240.5 506,-244.33 502.17,-248.17 498.33,-248.17"/>
<text text-anchor="middle" x="422.5" y="-232.97" font-family="Arial" font-size="14.00" fill="#c6c5fe">service/kotatsu.service.ts</text>
</g>
<!-- router/iot.ts&#45;&gt;service/kotatsu.service.ts -->
<g id="edge16" class="edge">
<title>router/iot.ts&#45;&gt;service/kotatsu.service.ts</title>
<path fill="none" stroke="#757575" d="M243.03,-270C272.96,-264.41 314.29,-256.69 349.65,-250.09"/>
<polygon fill="#757575" stroke="#757575" points="350.74,-253.44 359.93,-248.17 349.45,-246.56 350.74,-253.44"/>
</g>
<!-- router/user.ts&#45;&gt;service/user.service.ts -->
<g id="edge18" class="edge">
<title>router/user.ts&#45;&gt;service/user.service.ts</title>
<path fill="none" stroke="#757575" d="M248.75,-211.29C266.09,-208.18 285.72,-203.76 303,-197.67 336.06,-186.02 371.34,-166.55 394.72,-152.53"/>
<polygon fill="#757575" stroke="#757575" points="396.64,-155.46 403.37,-147.27 393.01,-149.48 396.64,-155.46"/>
</g>
<!-- router/user.ts&#45;&gt;service/kotatsu.service.ts -->
<g id="edge17" class="edge">
<title>router/user.ts&#45;&gt;service/kotatsu.service.ts</title>
<path fill="none" stroke="#757575" d="M248.55,-221.7C271.86,-223.71 300.95,-226.23 328.57,-228.62"/>
<polygon fill="#757575" stroke="#757575" points="328.41,-232.12 338.67,-229.5 329.01,-225.15 328.41,-232.12"/>
</g>
<!-- utils/init.ts&#45;&gt;constants/constant.ts -->
<g id="edge24" class="edge">
<title>utils/init.ts&#45;&gt;constants/constant.ts</title>
<path fill="none" stroke="#757575" d="M239.01,-180.44C368.65,-193.21 801.67,-232.15 935,-196.67 966.53,-188.28 998.44,-168.1 1019,-153.24"/>
<polygon fill="#757575" stroke="#757575" points="1021.14,-156.01 1027.08,-147.24 1016.97,-150.39 1021.14,-156.01"/>
</g>
<!-- utils/init.ts&#45;&gt;utils/logger.ts -->
<g id="edge27" class="edge">
<title>utils/init.ts&#45;&gt;utils/logger.ts</title>
<path fill="none" stroke="#757575" d="M239.07,-175.08C259.11,-172.85 283.64,-167.82 303,-156.67 324.01,-144.56 321.08,-132.01 339,-115.67 356.33,-99.86 377.82,-84.34 394.52,-73.05"/>
<polygon fill="#757575" stroke="#757575" points="396.86,-75.7 403.25,-67.24 392.98,-69.87 396.86,-75.7"/>
</g>
<!-- utils/init.ts&#45;&gt;service/user.service.ts -->
<g id="edge26" class="edge">
<title>utils/init.ts&#45;&gt;service/user.service.ts</title>
<path fill="none" stroke="#757575" d="M239.24,-169.71C269.31,-164.09 312.53,-156.02 349.34,-149.15"/>
<polygon fill="#757575" stroke="#757575" points="350.35,-152.52 359.54,-147.24 349.06,-145.64 350.35,-152.52"/>
</g>
<!-- utils/init.ts&#45;&gt;service/kotatsu.service.ts -->
<g id="edge25" class="edge">
<title>utils/init.ts&#45;&gt;service/kotatsu.service.ts</title>
<path fill="none" stroke="#757575" d="M239.24,-183.1C258.44,-186.75 282.15,-191.77 303,-197.67 319.37,-202.3 322.88,-205.22 339,-210.67 350.22,-214.46 362.36,-218.38 373.79,-222"/>
<polygon fill="#757575" stroke="#757575" points="373.02,-225.43 383.61,-225.08 375.12,-218.75 373.02,-225.43"/>
</g>
<!-- utils/login.ts&#45;&gt;constants/constant.ts -->
<g id="edge28" class="edge">
<title>utils/login.ts&#45;&gt;constants/constant.ts</title>
<path fill="none" stroke="#757575" d="M244.53,-128.36C380.45,-105.61 803.11,-39.57 935,-74.67 966.53,-83.06 998.44,-103.23 1019,-118.1"/>
<polygon fill="#757575" stroke="#757575" points="1016.97,-120.94 1027.08,-124.09 1021.14,-115.32 1016.97,-120.94"/>
</g>
<!-- utils/login.ts&#45;&gt;service/user.service.ts -->
<g id="edge29" class="edge">
<title>utils/login.ts&#45;&gt;service/user.service.ts</title>
<path fill="none" stroke="#757575" d="M244.58,-135.67C271.02,-135.67 305.9,-135.67 337.71,-135.67"/>
<polygon fill="#757575" stroke="#757575" points="337.91,-139.17 347.91,-135.67 337.91,-132.17 337.91,-139.17"/>
</g>
<!-- service/user.service.ts&#45;&gt;db/entities/user.entity.ts -->
<g id="edge21" class="edge">
<title>service/user.service.ts&#45;&gt;db/entities/user.entity.ts</title>
<path fill="none" stroke="#757575" d="M484.53,-124.15C502.94,-121 523.25,-117.86 542,-115.67 614.62,-107.18 697.45,-102.03 758.36,-99.08"/>
<polygon fill="#757575" stroke="#757575" points="758.88,-102.56 768.71,-98.6 758.55,-95.57 758.88,-102.56"/>
</g>
<!-- service/user.service.ts&#45;&gt;db/models/user.model.ts -->
<g id="edge22" class="edge">
<title>service/user.service.ts&#45;&gt;db/models/user.model.ts</title>
<path fill="none" stroke="#757575" d="M497.01,-135.67C511.2,-135.67 526.23,-135.67 540.91,-135.67"/>
<polygon fill="#757575" stroke="#757575" points="541,-139.17 551,-135.67 541,-132.17 541,-139.17"/>
</g>
<!-- service/kotatsu.service.ts&#45;&gt;db/entities/kotatsu.entity.ts -->
<g id="edge19" class="edge">
<title>service/kotatsu.service.ts&#45;&gt;db/entities/kotatsu.entity.ts</title>
<path fill="none" stroke="#757575" d="M506.28,-239.7C566.74,-242.45 650.63,-247.38 724,-255.67 740.05,-257.48 757.2,-259.95 773.43,-262.53"/>
<polygon fill="#757575" stroke="#757575" points="772.97,-266 783.4,-264.14 774.09,-259.09 772.97,-266"/>
</g>
<!-- service/kotatsu.service.ts&#45;&gt;db/models/kotatsu.model.ts -->
<g id="edge20" class="edge">
<title>service/kotatsu.service.ts&#45;&gt;db/models/kotatsu.model.ts</title>
<path fill="none" stroke="#757575" d="M485.21,-248.21C508.85,-252.63 536.02,-257.71 560.5,-262.29"/>
<polygon fill="#757575" stroke="#757575" points="559.97,-265.76 570.45,-264.15 561.26,-258.87 559.97,-265.76"/>
</g>
</g>
</svg>
