<?xml version="1.0" encoding="UTF-8" standalone="no"?>
<!DOCTYPE svg PUBLIC "-//W3C//DTD SVG 1.1//EN"
 "http://www.w3.org/Graphics/SVG/1.1/DTD/svg11.dtd">
<!-- Generated by graphviz version 2.50.0 (20211204.2007)
 -->
<!-- Title: G Pages: 1 -->
<svg width="1157pt" height="336pt"
 viewBox="0.00 0.00 1157.20 336.20" xmlns="http://www.w3.org/2000/svg" xmlns:xlink="http://www.w3.org/1999/xlink">
<g id="graph0" class="graph" transform="scale(1 1) rotate(0) translate(21.6 314.6)">
<title>G</title>
<polygon fill="#111111" stroke="transparent" points="-21.6,21.6 -21.6,-314.6 1135.6,-314.6 1135.6,21.6 -21.6,21.6"/>
<!-- constants/constant.ts -->
<g id="node1" class="node">
<title>constants/constant.ts</title>
<path fill="none" stroke="#cfffac" d="M1106.33,-182C1106.33,-182 978.67,-182 978.67,-182 974.83,-182 971,-178.17 971,-174.33 971,-174.33 971,-166.67 971,-166.67 971,-162.83 974.83,-159 978.67,-159 978.67,-159 1106.33,-159 1106.33,-159 1110.17,-159 1114,-162.83 1114,-166.67 1114,-166.67 1114,-174.33 1114,-174.33 1114,-178.17 1110.17,-182 1106.33,-182"/>
<text text-anchor="middle" x="1042.5" y="-166.8" font-family="Arial" font-size="14.00" fill="#cfffac">constants/constant.ts</text>
</g>
<!-- db/entities/kotatsu.entity.ts -->
<g id="node2" class="node">
<title>db/entities/kotatsu.entity.ts</title>
<path fill="none" stroke="#cfffac" d="M927.33,-43C927.33,-43 767.67,-43 767.67,-43 763.83,-43 760,-39.17 760,-35.33 760,-35.33 760,-27.67 760,-27.67 760,-23.83 763.83,-20 767.67,-20 767.67,-20 927.33,-20 927.33,-20 931.17,-20 935,-23.83 935,-27.67 935,-27.67 935,-35.33 935,-35.33 935,-39.17 931.17,-43 927.33,-43"/>
<text text-anchor="middle" x="847.5" y="-27.8" font-family="Arial" font-size="14.00" fill="#cfffac">db/entities/kotatsu.entity.ts</text>
</g>
<!-- db/entities/user.entity.ts -->
<g id="node3" class="node">
<title>db/entities/user.entity.ts</title>
<path fill="none" stroke="#cfffac" d="M918.33,-222C918.33,-222 776.67,-222 776.67,-222 772.83,-222 769,-218.17 769,-214.33 769,-214.33 769,-206.67 769,-206.67 769,-202.83 772.83,-199 776.67,-199 776.67,-199 918.33,-199 918.33,-199 922.17,-199 926,-202.83 926,-206.67 926,-206.67 926,-214.33 926,-214.33 926,-218.17 922.17,-222 918.33,-222"/>
<text text-anchor="middle" x="847.5" y="-206.8" font-family="Arial" font-size="14.00" fill="#cfffac">db/entities/user.entity.ts</text>
</g>
<!-- db/models/kotatsu.model.ts -->
<g id="node4" class="node">
<title>db/models/kotatsu.model.ts</title>
<path fill="none" stroke="#c6c5fe" d="M716.33,-23C716.33,-23 549.67,-23 549.67,-23 545.83,-23 542,-19.17 542,-15.33 542,-15.33 542,-7.67 542,-7.67 542,-3.83 545.83,0 549.67,0 549.67,0 716.33,0 716.33,0 720.17,0 724,-3.83 724,-7.67 724,-7.67 724,-15.33 724,-15.33 724,-19.17 720.17,-23 716.33,-23"/>
<text text-anchor="middle" x="633" y="-7.8" font-family="Arial" font-size="14.00" fill="#c6c5fe">db/models/kotatsu.model.ts</text>
</g>
<!-- db/models/kotatsu.model.ts&#45;&gt;db/entities/kotatsu.entity.ts -->
<g id="edge1" class="edge">
<title>db/models/kotatsu.model.ts&#45;&gt;db/entities/kotatsu.entity.ts</title>
<path fill="none" stroke="#757575" d="M724.12,-19.98C732.66,-20.79 741.34,-21.6 749.93,-22.41"/>
<polygon fill="#757575" stroke="#757575" points="749.68,-25.9 759.97,-23.36 750.34,-18.93 749.68,-25.9"/>
</g>
<!-- db/models/user.model.ts -->
<g id="node5" class="node">
<title>db/models/user.model.ts</title>
<path fill="none" stroke="#c6c5fe" d="M707.33,-182C707.33,-182 558.67,-182 558.67,-182 554.83,-182 551,-178.17 551,-174.33 551,-174.33 551,-166.67 551,-166.67 551,-162.83 554.83,-159 558.67,-159 558.67,-159 707.33,-159 707.33,-159 711.17,-159 715,-162.83 715,-166.67 715,-166.67 715,-174.33 715,-174.33 715,-178.17 711.17,-182 707.33,-182"/>
<text text-anchor="middle" x="633" y="-166.8" font-family="Arial" font-size="14.00" fill="#c6c5fe">db/models/user.model.ts</text>
</g>
<!-- db/models/user.model.ts&#45;&gt;constants/constant.ts -->
<g id="edge2" class="edge">
<title>db/models/user.model.ts&#45;&gt;constants/constant.ts</title>
<path fill="none" stroke="#757575" d="M715.48,-170.5C786.66,-170.5 889.41,-170.5 960.46,-170.5"/>
<polygon fill="#757575" stroke="#757575" points="960.7,-174 970.7,-170.5 960.7,-167 960.7,-174"/>
</g>
<!-- db/models/user.model.ts&#45;&gt;db/entities/user.entity.ts -->
<g id="edge3" class="edge">
<title>db/models/user.model.ts&#45;&gt;db/entities/user.entity.ts</title>
<path fill="none" stroke="#757575" d="M695.18,-182.02C720.18,-186.72 749.27,-192.2 775.23,-197.08"/>
<polygon fill="#757575" stroke="#757575" points="774.91,-200.59 785.39,-199 776.21,-193.71 774.91,-200.59"/>
</g>
<!-- utils/hash.ts -->
<g id="node6" class="node">
<title>utils/hash.ts</title>
<path fill="none" stroke="#c6c5fe" d="M883.83,-142C883.83,-142 811.17,-142 811.17,-142 807.33,-142 803.5,-138.17 803.5,-134.33 803.5,-134.33 803.5,-126.67 803.5,-126.67 803.5,-122.83 807.33,-119 811.17,-119 811.17,-119 883.83,-119 883.83,-119 887.67,-119 891.5,-122.83 891.5,-126.67 891.5,-126.67 891.5,-134.33 891.5,-134.33 891.5,-138.17 887.67,-142 883.83,-142"/>
<text text-anchor="middle" x="847.5" y="-126.8" font-family="Arial" font-size="14.00" fill="#c6c5fe">utils/hash.ts</text>
</g>
<!-- db/models/user.model.ts&#45;&gt;utils/hash.ts -->
<g id="edge4" class="edge">
<title>db/models/user.model.ts&#45;&gt;utils/hash.ts</title>
<path fill="none" stroke="#757575" d="M695.18,-158.98C726.11,-153.16 763.29,-146.16 793.06,-140.56"/>
<polygon fill="#757575" stroke="#757575" points="794.08,-143.93 803.26,-138.64 792.78,-137.05 794.08,-143.93"/>
</g>
<!-- utils/hash.ts&#45;&gt;constants/constant.ts -->
<g id="edge18" class="edge">
<title>utils/hash.ts&#45;&gt;constants/constant.ts</title>
<path fill="none" stroke="#757575" d="M891.81,-139.48C916.56,-144.61 948.09,-151.14 975.83,-156.89"/>
<polygon fill="#757575" stroke="#757575" points="975.35,-160.36 985.85,-158.97 976.77,-153.51 975.35,-160.36"/>
</g>
<!-- index.ts -->
<g id="node7" class="node">
<title>index.ts</title>
<path fill="none" stroke="#c6c5fe" d="M55.33,-143C55.33,-143 7.67,-143 7.67,-143 3.83,-143 0,-139.17 0,-135.33 0,-135.33 0,-127.67 0,-127.67 0,-123.83 3.83,-120 7.67,-120 7.67,-120 55.33,-120 55.33,-120 59.17,-120 63,-123.83 63,-127.67 63,-127.67 63,-135.33 63,-135.33 63,-139.17 59.17,-143 55.33,-143"/>
<text text-anchor="middle" x="31.5" y="-127.8" font-family="Arial" font-size="14.00" fill="#c6c5fe">index.ts</text>
</g>
<!-- index.ts&#45;&gt;constants/constant.ts -->
<g id="edge5" class="edge">
<title>index.ts&#45;&gt;constants/constant.ts</title>
<path fill="none" stroke="#757575" d="M42.13,-143.08C54.11,-156.77 75.83,-179.36 99,-192.5 229.09,-266.26 271.95,-288.5 421.5,-288.5 421.5,-288.5 421.5,-288.5 634,-288.5 768.49,-288.5 810.81,-309.1 935,-257.5 971.59,-242.3 1005.5,-210.24 1024.83,-189.57"/>
<polygon fill="#757575" stroke="#757575" points="1027.57,-191.76 1031.72,-182.01 1022.4,-187.04 1027.57,-191.76"/>
</g>
<!-- middleware/auth.middleware.ts -->
<g id="node8" class="node">
<title>middleware/auth.middleware.ts</title>
<path fill="none" stroke="#c6c5fe" d="M295.33,-183C295.33,-183 106.67,-183 106.67,-183 102.83,-183 99,-179.17 99,-175.33 99,-175.33 99,-167.67 99,-167.67 99,-163.83 102.83,-160 106.67,-160 106.67,-160 295.33,-160 295.33,-160 299.17,-160 303,-163.83 303,-167.67 303,-167.67 303,-175.33 303,-175.33 303,-179.17 299.17,-183 295.33,-183"/>
<text text-anchor="middle" x="201" y="-167.8" font-family="Arial" font-size="14.00" fill="#c6c5fe">middleware/auth.middleware.ts</text>
</g>
<!-- index.ts&#45;&gt;middleware/auth.middleware.ts -->
<g id="edge6" class="edge">
<title>index.ts&#45;&gt;middleware/auth.middleware.ts</title>
<path fill="none" stroke="#757575" d="M63.22,-138.84C85.16,-144.08 115.35,-151.29 141.79,-157.6"/>
<polygon fill="#757575" stroke="#757575" points="141.17,-161.05 151.71,-159.97 142.8,-154.24 141.17,-161.05"/>
</g>
<!-- router/iot.ts -->
<g id="node9" class="node">
<title>router/iot.ts</title>
<path fill="none" stroke="#c6c5fe" d="M235.33,-62C235.33,-62 166.67,-62 166.67,-62 162.83,-62 159,-58.17 159,-54.33 159,-54.33 159,-46.67 159,-46.67 159,-42.83 162.83,-39 166.67,-39 166.67,-39 235.33,-39 235.33,-39 239.17,-39 243,-42.83 243,-46.67 243,-46.67 243,-54.33 243,-54.33 243,-58.17 239.17,-62 235.33,-62"/>
<text text-anchor="middle" x="201" y="-46.8" font-family="Arial" font-size="14.00" fill="#c6c5fe">router/iot.ts</text>
</g>
<!-- index.ts&#45;&gt;router/iot.ts -->
<g id="edge7" class="edge">
<title>index.ts&#45;&gt;router/iot.ts</title>
<path fill="none" stroke="#757575" d="M41.93,-119.55C53.71,-105.49 75.24,-82.54 99,-70.5 114.19,-62.81 132.05,-58.07 148.5,-55.15"/>
<polygon fill="#757575" stroke="#757575" points="149.19,-58.59 158.52,-53.56 148.1,-51.67 149.19,-58.59"/>
</g>
<!-- utils/init.ts -->
<g id="node10" class="node">
<title>utils/init.ts</title>
<path fill="none" stroke="#c6c5fe" d="M231.33,-103C231.33,-103 170.67,-103 170.67,-103 166.83,-103 163,-99.17 163,-95.33 163,-95.33 163,-87.67 163,-87.67 163,-83.83 166.83,-80 170.67,-80 170.67,-80 231.33,-80 231.33,-80 235.17,-80 239,-83.83 239,-87.67 239,-87.67 239,-95.33 239,-95.33 239,-99.17 235.17,-103 231.33,-103"/>
<text text-anchor="middle" x="201" y="-87.8" font-family="Arial" font-size="14.00" fill="#c6c5fe">utils/init.ts</text>
</g>
<!-- index.ts&#45;&gt;utils/init.ts -->
<g id="edge8" class="edge">
<title>index.ts&#45;&gt;utils/init.ts</title>
<path fill="none" stroke="#757575" d="M63.22,-124.16C88.31,-118.17 124.19,-109.6 152.91,-102.75"/>
<polygon fill="#757575" stroke="#757575" points="153.83,-106.13 162.74,-100.4 152.2,-99.32 153.83,-106.13"/>
</g>
<!-- utils/logger.ts -->
<g id="node11" class="node">
<title>utils/logger.ts</title>
<path fill="none" stroke="#cfffac" d="M462.33,-142C462.33,-142 382.67,-142 382.67,-142 378.83,-142 375,-138.17 375,-134.33 375,-134.33 375,-126.67 375,-126.67 375,-122.83 378.83,-119 382.67,-119 382.67,-119 462.33,-119 462.33,-119 466.17,-119 470,-122.83 470,-126.67 470,-126.67 470,-134.33 470,-134.33 470,-138.17 466.17,-142 462.33,-142"/>
<text text-anchor="middle" x="422.5" y="-126.8" font-family="Arial" font-size="14.00" fill="#cfffac">utils/logger.ts</text>
</g>
<!-- index.ts&#45;&gt;utils/logger.ts -->
<g id="edge9" class="edge">
<title>index.ts&#45;&gt;utils/logger.ts</title>
<path fill="none" stroke="#757575" d="M63.02,-131.42C128.1,-131.25 281.35,-130.86 364.85,-130.65"/>
<polygon fill="#757575" stroke="#757575" points="364.93,-134.15 374.92,-130.62 364.91,-127.15 364.93,-134.15"/>
</g>
<!-- middleware/auth.middleware.ts&#45;&gt;constants/constant.ts -->
<g id="edge10" class="edge">
<title>middleware/auth.middleware.ts&#45;&gt;constants/constant.ts</title>
<path fill="none" stroke="#757575" d="M238.62,-183.06C347.08,-215.5 675.27,-300.62 935,-231.5 966.53,-223.11 998.44,-202.93 1019,-188.07"/>
<polygon fill="#757575" stroke="#757575" points="1021.14,-190.84 1027.08,-182.08 1016.97,-185.22 1021.14,-190.84"/>
</g>
<!-- middleware/auth.middleware.ts&#45;&gt;utils/logger.ts -->
<g id="edge12" class="edge">
<title>middleware/auth.middleware.ts&#45;&gt;utils/logger.ts</title>
<path fill="none" stroke="#757575" d="M263.73,-159.97C295.4,-154.05 333.71,-146.9 364.66,-141.12"/>
<polygon fill="#757575" stroke="#757575" points="365.66,-144.49 374.85,-139.21 364.37,-137.61 365.66,-144.49"/>
</g>
<!-- service/user.service.ts -->
<g id="node12" class="node">
<title>service/user.service.ts</title>
<path fill="none" stroke="#c6c5fe" d="M489.33,-183C489.33,-183 355.67,-183 355.67,-183 351.83,-183 348,-179.17 348,-175.33 348,-175.33 348,-167.67 348,-167.67 348,-163.83 351.83,-160 355.67,-160 355.67,-160 489.33,-160 489.33,-160 493.17,-160 497,-163.83 497,-167.67 497,-167.67 497,-175.33 497,-175.33 497,-179.17 493.17,-183 489.33,-183"/>
<text text-anchor="middle" x="422.5" y="-167.8" font-family="Arial" font-size="14.00" fill="#c6c5fe">service/user.service.ts</text>
</g>
<!-- middleware/auth.middleware.ts&#45;&gt;service/user.service.ts -->
<g id="edge11" class="edge">
<title>middleware/auth.middleware.ts&#45;&gt;service/user.service.ts</title>
<path fill="none" stroke="#757575" d="M303.08,-171.5C314.62,-171.5 326.29,-171.5 337.58,-171.5"/>
<polygon fill="#757575" stroke="#757575" points="337.82,-175 347.82,-171.5 337.82,-168 337.82,-175"/>
</g>
<!-- service/kotatsu.service.ts -->
<g id="node13" class="node">
<title>service/kotatsu.service.ts</title>
<path fill="none" stroke="#c6c5fe" d="M498.33,-62C498.33,-62 346.67,-62 346.67,-62 342.83,-62 339,-58.17 339,-54.33 339,-54.33 339,-46.67 339,-46.67 339,-42.83 342.83,-39 346.67,-39 346.67,-39 498.33,-39 498.33,-39 502.17,-39 506,-42.83 506,-46.67 506,-46.67 506,-54.33 506,-54.33 506,-58.17 502.17,-62 498.33,-62"/>
<text text-anchor="middle" x="422.5" y="-46.8" font-family="Arial" font-size="14.00" fill="#c6c5fe">service/kotatsu.service.ts</text>
</g>
<!-- router/iot.ts&#45;&gt;service/kotatsu.service.ts -->
<g id="edge13" class="edge">
<title>router/iot.ts&#45;&gt;service/kotatsu.service.ts</title>
<path fill="none" stroke="#757575" d="M243.03,-50.5C267.22,-50.5 298.87,-50.5 328.78,-50.5"/>
<polygon fill="#757575" stroke="#757575" points="328.85,-54 338.85,-50.5 328.85,-47 328.85,-54"/>
</g>
<!-- utils/init.ts&#45;&gt;constants/constant.ts -->
<g id="edge19" class="edge">
<title>utils/init.ts&#45;&gt;constants/constant.ts</title>
<path fill="none" stroke="#757575" d="M239.04,-90.02C368.79,-85.22 802.13,-72.39 935,-109.5 966.25,-118.23 997.99,-138.15 1018.6,-152.86"/>
<polygon fill="#757575" stroke="#757575" points="1016.57,-155.72 1026.71,-158.8 1020.71,-150.07 1016.57,-155.72"/>
</g>
<!-- utils/init.ts&#45;&gt;utils/logger.ts -->
<g id="edge22" class="edge">
<title>utils/init.ts&#45;&gt;utils/logger.ts</title>
<path fill="none" stroke="#757575" d="M239.24,-98.12C273.67,-104.23 325.33,-113.41 364.87,-120.44"/>
<polygon fill="#757575" stroke="#757575" points="364.45,-123.92 374.9,-122.22 365.67,-117.03 364.45,-123.92"/>
</g>
<!-- utils/init.ts&#45;&gt;service/user.service.ts -->
<g id="edge21" class="edge">
<title>utils/init.ts&#45;&gt;service/user.service.ts</title>
<path fill="none" stroke="#757575" d="M225.26,-103.19C252.13,-116.33 297.91,-137.64 339,-151.5 345.05,-153.54 351.41,-155.46 357.81,-157.25"/>
<polygon fill="#757575" stroke="#757575" points="357.29,-160.73 367.85,-159.94 359.1,-153.97 357.29,-160.73"/>
</g>
<!-- utils/init.ts&#45;&gt;service/kotatsu.service.ts -->
<g id="edge20" class="edge">
<title>utils/init.ts&#45;&gt;service/kotatsu.service.ts</title>
<path fill="none" stroke="#757575" d="M239.24,-84.54C269.31,-78.93 312.53,-70.85 349.34,-63.98"/>
<polygon fill="#757575" stroke="#757575" points="350.35,-67.35 359.54,-62.07 349.06,-60.47 350.35,-67.35"/>
</g>
<!-- service/user.service.ts&#45;&gt;db/entities/user.entity.ts -->
<g id="edge16" class="edge">
<title>service/user.service.ts&#45;&gt;db/entities/user.entity.ts</title>
<path fill="none" stroke="#757575" d="M484.22,-183.01C502.71,-186.17 523.14,-189.33 542,-191.5 614.62,-199.87 697.44,-204.74 758.36,-207.45"/>
<polygon fill="#757575" stroke="#757575" points="758.56,-210.96 768.71,-207.9 758.87,-203.97 758.56,-210.96"/>
</g>
<!-- service/user.service.ts&#45;&gt;db/models/user.model.ts -->
<g id="edge17" class="edge">
<title>service/user.service.ts&#45;&gt;db/models/user.model.ts</title>
<path fill="none" stroke="#757575" d="M497.01,-171.15C511.2,-171.08 526.23,-171.01 540.91,-170.94"/>
<polygon fill="#757575" stroke="#757575" points="541.01,-174.44 551,-170.89 540.98,-167.44 541.01,-174.44"/>
</g>
<!-- service/kotatsu.service.ts&#45;&gt;db/entities/kotatsu.entity.ts -->
<g id="edge14" class="edge">
<title>service/kotatsu.service.ts&#45;&gt;db/entities/kotatsu.entity.ts</title>
<path fill="none" stroke="#757575" d="M506.06,-46.79C575.87,-43.66 675.98,-39.16 749.58,-35.85"/>
<polygon fill="#757575" stroke="#757575" points="749.95,-39.34 759.78,-35.4 749.64,-32.35 749.95,-39.34"/>
</g>
<!-- service/kotatsu.service.ts&#45;&gt;db/models/kotatsu.model.ts -->
<g id="edge15" class="edge">
<title>service/kotatsu.service.ts&#45;&gt;db/models/kotatsu.model.ts</title>
<path fill="none" stroke="#757575" d="M485.21,-38.96C508.85,-34.53 536.02,-29.45 560.5,-24.87"/>
<polygon fill="#757575" stroke="#757575" points="561.26,-28.29 570.45,-23.01 559.97,-21.41 561.26,-28.29"/>
</g>
</g>
</svg>
